<svg width="32" height="32" viewBox="0 0 32 32" fill="none" xmlns="http://www.w3.org/2000/svg">
<path d="M10.0607 11.6124C12.0632 17.1139 14.1364 19.3089 19.4106 21.6468L17.1249 24.8795C11.0685 21.9595 8.05198 17.0375 6.63128 13.1964L10.0607 11.6124Z" fill="white"/>
<path d="M11.7405 4.01733C12.8113 4.01311 13.6255 4.91041 13.5525 5.92646C13.4376 7.52538 13.5599 8.67897 13.8892 10.1089C14.0701 10.8944 13.6609 11.6921 13.0106 12.2059C12.134 12.8985 11.4644 13.781 10.9322 14.5406C10.1945 15.5936 7.65581 15.5179 7.09438 14.3709C5.94056 12.0135 5.15862 7.67031 6.84353 4.736C7.10819 4.27509 7.64108 4.03347 8.19326 4.03129L11.7405 4.01733Z" fill="white"/>
<path d="M27.9949 21.4621C28.1281 20.4516 27.2893 19.575 26.22 19.5217C24.5371 19.4379 23.3477 19.1837 21.8947 18.7008C21.0965 18.4356 20.2146 18.726 19.6 19.2782C18.7717 20.0225 17.77 20.5486 16.913 20.9598C15.7252 21.5296 15.4989 23.9356 16.6287 24.6036C18.9507 25.9765 23.3902 27.2371 26.6558 25.9991C27.1687 25.8047 27.485 25.3306 27.5537 24.8096L27.9949 21.4621Z" fill="white"/>
</svg>
