<svg width="40" height="40" viewBox="0 0 40 40" fill="none" xmlns="http://www.w3.org/2000/svg">
<path d="M32.4431 9.32463C32.4431 7.99524 31.3864 6.92183 30.0873 6.92183C28.7882 6.92183 27.7305 7.99524 27.7305 9.32463C27.7305 10.6491 28.7882 11.7225 30.0873 11.7225C31.3864 11.7225 32.4431 10.6491 32.4431 9.32463Z" fill="url(#paint0_linear_131_380)"/>
<path d="M35.5826 28.0807C35.4954 30.0309 35.1754 31.0904 34.9098 31.7942C34.553 32.7273 34.1275 33.3944 33.4372 34.0942C32.7547 34.794 32.1003 35.2269 31.1851 35.5867C30.4948 35.8615 29.4517 36.1886 27.5389 36.2816C25.471 36.3745 24.8583 36.3943 19.6144 36.3943C14.3754 36.3943 13.7578 36.3745 11.6899 36.2816C9.77718 36.1886 8.73887 35.8615 8.04856 35.5867C7.12855 35.2269 6.47903 34.794 5.79264 34.0942C5.10138 33.3944 4.6758 32.7273 4.32388 31.7942C4.0582 31.0904 3.73347 30.0309 3.65102 28.0807C3.55024 25.9725 3.53177 25.3379 3.53177 20.0025C3.53177 14.6562 3.55024 14.0265 3.65102 11.9182C3.73347 9.96814 4.0582 8.90956 4.32388 8.19983C4.6758 7.26778 5.10138 6.60453 5.79264 5.90474C6.47903 5.20598 7.12855 4.77202 8.04856 4.40834C8.73887 4.13257 9.77718 3.81033 11.6899 3.71744C13.7578 3.62448 14.3754 3.60075 19.6144 3.60075C24.8583 3.60075 25.471 3.62448 27.5389 3.71744C29.4517 3.81033 30.4948 4.13257 31.1851 4.40834C32.1003 4.77202 32.7547 5.20598 33.4372 5.90474C34.1275 6.60453 34.553 7.26778 34.9098 8.19983C35.1754 8.90956 35.4954 9.96814 35.5826 11.9182C35.6786 14.0265 35.7019 14.6562 35.7019 20.0025C35.7019 25.3379 35.6786 25.9725 35.5826 28.0807ZM39.1145 11.7542C39.0185 9.62314 38.6888 8.16721 38.1993 6.89913C37.701 5.58353 37.033 4.46861 35.9394 3.35368C34.8507 2.24372 33.7572 1.56268 32.4668 1.04873C31.2181 0.554501 29.7949 0.214462 27.7037 0.121578C25.6125 0.0187569 24.9446 0 19.6144 0C14.2891 0 13.6163 0.0187569 11.5251 0.121578C9.43879 0.214462 8.01657 0.554501 6.76209 1.04873C5.47657 1.56268 4.383 2.24372 3.2943 3.35368C2.20073 4.46861 1.53274 5.58353 1.02958 6.89913C0.544821 8.16721 0.215224 9.62314 0.114374 11.7542C0.0232674 13.8862 0 14.5682 0 20.0025C0 25.4318 0.0232674 26.1128 0.114374 28.2448C0.215224 30.3719 0.544821 31.8268 1.02958 33.1009C1.53274 34.4115 2.20073 35.5314 3.2943 36.6414C4.383 37.7513 5.47657 38.4373 6.76209 38.9503C8.01657 39.4445 9.43879 39.7806 11.5251 39.8784C13.6163 39.9763 14.2891 40 19.6144 40C24.9446 40 25.6125 39.9763 27.7037 39.8784C29.7949 39.7806 31.2181 39.4445 32.4668 38.9503C33.7572 38.4373 34.8507 37.7513 35.9394 36.6414C37.033 35.5314 37.701 34.4115 38.1993 33.1009C38.6888 31.8268 39.0185 30.3719 39.1145 28.2448C39.2105 26.1128 39.2337 25.4318 39.2337 20.0025C39.2337 14.5682 39.2105 13.8862 39.1145 11.7542Z" fill="url(#paint1_linear_131_380)"/>
<path d="M19.6148 26.6633C16.0055 26.6633 13.0767 23.6822 13.0767 20.0024C13.0767 16.3166 16.0055 13.3316 19.6148 13.3316C23.2252 13.3316 26.1579 16.3166 26.1579 20.0024C26.1579 23.6822 23.2252 26.6633 19.6148 26.6633ZM19.6148 9.72593C14.051 9.72593 9.54492 14.3299 9.54492 20.0024C9.54492 25.67 14.051 30.269 19.6148 30.269C25.1787 30.269 29.6896 25.67 29.6896 20.0024C29.6896 14.3299 25.1787 9.72593 19.6148 9.72593Z" fill="url(#paint2_linear_131_380)"/>
<defs>
<linearGradient id="paint0_linear_131_380" x1="0.353509" y1="39.5864" x2="36.6543" y2="3.98111" gradientUnits="userSpaceOnUse">
<stop stop-color="#FFD521"/>
<stop offset="0.05" stop-color="#FFD521"/>
<stop offset="0.501119" stop-color="#F50000"/>
<stop offset="0.95" stop-color="#B900B4"/>
<stop offset="0.950079" stop-color="#B900B4"/>
<stop offset="1" stop-color="#B900B4"/>
</linearGradient>
<linearGradient id="paint1_linear_131_380" x1="0.353883" y1="39.6362" x2="36.6845" y2="4.0016" gradientUnits="userSpaceOnUse">
<stop stop-color="#FFD521"/>
<stop offset="0.05" stop-color="#FFD521"/>
<stop offset="0.501119" stop-color="#F50000"/>
<stop offset="0.95" stop-color="#B900B4"/>
<stop offset="0.950079" stop-color="#B900B4"/>
<stop offset="1" stop-color="#B900B4"/>
</linearGradient>
<linearGradient id="paint2_linear_131_380" x1="0.363536" y1="39.6372" x2="36.6854" y2="4.0111" gradientUnits="userSpaceOnUse">
<stop stop-color="#FFD521"/>
<stop offset="0.05" stop-color="#FFD521"/>
<stop offset="0.501119" stop-color="#F50000"/>
<stop offset="0.95" stop-color="#B900B4"/>
<stop offset="0.950079" stop-color="#B900B4"/>
<stop offset="1" stop-color="#B900B4"/>
</linearGradient>
</defs>
</svg>
