<svg width="32" height="32" viewBox="0 0 32 32" fill="none" xmlns="http://www.w3.org/2000/svg">
<path fill-rule="evenodd" clip-rule="evenodd" d="M24.5812 8.73792C25.2096 8.73792 25.7677 9.03109 26.1188 9.48455L15.921 17.808L5.81408 9.63569C6.15201 9.09729 6.7615 8.73792 7.45725 8.73792H24.5812ZM5.5332 22.5937V11.1127L12.7852 16.9765L5.54815 22.8282C5.53829 22.7514 5.5332 22.6731 5.5332 22.5937ZM6.19644 24.0081C6.53411 24.2934 6.97495 24.4661 7.45725 24.4661H24.5812C24.9958 24.4661 25.3797 24.3385 25.6938 24.1215L17.9877 17.8318L16.6019 18.9629C16.21 19.2828 15.639 19.2841 15.2456 18.9659L13.8389 17.8285L6.19644 24.0081ZM19.0356 16.9765L26.4527 23.0303C26.4871 22.8902 26.5053 22.744 26.5053 22.5937V10.8798L19.0356 16.9765Z" fill="white"/>
</svg>
