<svg width="32" height="32" viewBox="0 0 32 32" fill="none" xmlns="http://www.w3.org/2000/svg">
<path d="M28.0241 15.4042H23.5402V5.92094C23.5393 5.72569 23.4927 5.53372 23.4047 5.36207C23.3167 5.19043 23.19 5.04443 23.0358 4.93705L16.31 0.195398C16.127 0.0679334 15.9126 0 15.6935 0C15.4743 0 15.26 0.0679334 15.077 0.195398L8.35118 4.93705C8.19698 5.04443 8.07024 5.19043 7.98224 5.36207C7.89424 5.53372 7.8477 5.72569 7.84674 5.92094V15.4042H3.36289C2.471 15.4042 1.61563 15.7789 0.984968 16.4458C0.354304 17.1128 0 18.0173 0 18.9605V30.8146C0 31.129 0.118101 31.4305 0.328322 31.6528C0.538544 31.8751 0.823665 32 1.12096 32H30.266C30.5633 32 30.8484 31.8751 31.0587 31.6528C31.2689 31.4305 31.387 31.129 31.387 30.8146V18.9605C31.387 18.0173 31.0327 17.1128 30.402 16.4458C29.7713 15.7789 28.916 15.4042 28.0241 15.4042ZM2.24193 18.9605C2.24193 18.6461 2.36003 18.3446 2.57025 18.1223C2.78047 17.8999 3.06559 17.7751 3.36289 17.7751H7.84674V29.6292H2.24193V18.9605ZM10.0887 16.5896V6.51364L15.6935 2.60178L21.2983 6.51364V29.6292H19.0564V18.9605C19.0564 18.6461 18.9383 18.3446 18.7281 18.1223C18.5178 17.8999 18.2327 17.7751 17.9354 17.7751H13.4516C13.1543 17.7751 12.8691 17.8999 12.6589 18.1223C12.4487 18.3446 12.3306 18.6461 12.3306 18.9605V29.6292H10.0887V16.5896ZM14.5725 29.6292V20.1459H16.8144V29.6292H14.5725ZM29.145 29.6292H23.5402V17.7751H28.0241C28.3214 17.7751 28.6065 17.8999 28.8167 18.1223C29.0269 18.3446 29.145 18.6461 29.145 18.9605V29.6292Z" fill="#FFFEFE"/>
<path d="M13.451 9.47703H17.9349C18.2322 9.47703 18.5173 9.35213 18.7275 9.12983C18.9378 8.90752 19.0559 8.606 19.0559 8.29161C19.0559 7.97722 18.9378 7.67571 18.7275 7.4534C18.5173 7.23109 18.2322 7.1062 17.9349 7.1062H13.451C13.1537 7.1062 12.8686 7.23109 12.6584 7.4534C12.4482 7.67571 12.3301 7.97722 12.3301 8.29161C12.3301 8.606 12.4482 8.90752 12.6584 9.12983C12.8686 9.35213 13.1537 9.47703 13.451 9.47703Z" fill="white"/>
<path d="M13.451 14.2188H17.9349C18.2322 14.2188 18.5173 14.094 18.7275 13.8716C18.9378 13.6493 19.0559 13.3478 19.0559 13.0334C19.0559 12.719 18.9378 12.4175 18.7275 12.1952C18.5173 11.9729 18.2322 11.848 17.9349 11.848H13.451C13.1537 11.848 12.8686 11.9729 12.6584 12.1952C12.4482 12.4175 12.3301 12.719 12.3301 13.0334C12.3301 13.3478 12.4482 13.6493 12.6584 13.8716C12.8686 14.094 13.1537 14.2188 13.451 14.2188Z" fill="white"/>
</svg>
